<?xml version="1.0" encoding="UTF-8"?>
<svg width="1200pt" height="1200pt" version="1.1" viewBox="0 0 1200 1200" xmlns="http://www.w3.org/2000/svg">
 <path d="m909.82 237.6-80.137 79.988-26.664-26.664c-29.289-29.289-76.762-29.289-106.05 0l-53.324 53.324c-58.723-27.977-124.2-44.25-193.65-44.25-248.59 0-450 201.56-450 450 0 248.59 201.41 450 450 450 248.44 0 450-201.41 450-450 0-69.449-16.273-134.93-44.25-193.65l53.324-53.324c29.289-29.289 29.289-76.762 0-106.05l-24.188-24.188 79.988-79.988c15.227-15.375 15.227-40.125 0-55.238-15.074-15.336-39.977-15.336-55.051 0.039062zm-234.82 512.4c0-124.2-100.8-225-225-225v-75c165.68 0 300 134.32 300 300zm525-487.5c0 20.812-16.836 37.5-37.5 37.5h-75c-20.812 0-37.5-16.688-37.5-37.5 0-20.664 16.688-37.5 37.5-37.5h75c20.664 0 37.5 16.836 37.5 37.5zm-300-150v-75c0-20.664 16.688-37.5 37.5-37.5 20.664 0 37.5 16.836 37.5 37.5v75c0 20.812-16.836 37.5-37.5 37.5-20.812 0-37.5-16.688-37.5-37.5zm128.02 59.477c-14.664-14.664-14.664-38.363 0-53.023l53.023-53.023c14.664-14.664 38.363-14.664 53.023 0 14.664 14.664 14.664 38.363 0 53.023l-53.02 53.172c-14.625 14.625-38.363 14.625-53.027-0.14844z"/>
</svg>
