<?xml version="1.0" encoding="UTF-8"?>
<svg width="1200pt" height="1200pt" version="1.1" viewBox="0 0 1200 1200" xmlns="http://www.w3.org/2000/svg">
 <path d="m365.71 578.6 222.88 324.97v-0.003906c14.777 21.523 39.203 34.387 65.312 34.398h1.2695-0.003907c26.586-0.45312 51.172-14.203 65.469-36.617l467-732.05c12.086-17.723 16.473-39.59 12.156-60.602-4.3164-21.016-16.965-39.379-35.055-50.906-18.094-11.523-40.086-15.223-60.953-10.254-20.867 4.9727-38.828 18.191-49.781 36.637l-402.48 630.91-220.82-321.8c-14.898-21.816-39.688-34.773-66.102-34.559-26.168 0.082031-50.605 13.074-65.312 34.719l-140.77 207.82v-501.24c0-28.316-15.105-54.484-39.629-68.641-24.523-14.16-54.738-14.16-79.262 0-24.523 14.156-39.629 40.324-39.629 68.641v999.95c0 21.023 8.3516 41.184 23.215 56.047 14.863 14.863 35.023 23.215 56.047 23.215h1023.7c28.316 0 54.484-15.109 68.641-39.629 14.16-24.523 14.16-54.738 0-79.262-14.156-24.523-40.324-39.629-68.641-39.629h-944.46v-137.6z"/>
</svg>
