<?xml version="1.0" encoding="UTF-8" standalone="no"?>
<svg
   width="1200pt"
   height="1200pt"
   version="1.1"
   viewBox="0 0 1200 1200"
   id="svg16"
   sodipodi:docname="forgot_password.svg"
   inkscape:version="1.1.2 (0a00cf5339, 2022-02-04)"
   xmlns:inkscape="http://www.inkscape.org/namespaces/inkscape"
   xmlns:sodipodi="http://sodipodi.sourceforge.net/DTD/sodipodi-0.dtd"
   xmlns="http://www.w3.org/2000/svg"
   xmlns:svg="http://www.w3.org/2000/svg">
  <sodipodi:namedview
     id="namedview1110"
     pagecolor="#ffffff"
     bordercolor="#666666"
     borderopacity="1.0"
     inkscape:pageshadow="2"
     inkscape:pageopacity="0.0"
     inkscape:pagecheckerboard="0"
     inkscape:document-units="pt"
     showgrid="false"
     inkscape:zoom="0.3775"
     inkscape:cx="396.02649"
     inkscape:cy="800"
     inkscape:window-width="1868"
     inkscape:window-height="904"
     inkscape:window-x="0"
     inkscape:window-y="0"
     inkscape:window-maximized="1"
     inkscape:current-layer="svg16" />
  <defs
     id="defs20" />
  <path
     transform="matrix(4.9432 0 0 4.9432 -7.0246e-14 .11369)"
     d="m49.671 117.82v-29.352c0-20.966 15.898-38.12 35.329-38.12s35.328 17.154 35.328 35.07v32.401"
     fill="none"
     stroke="#000"
     stroke-width="25"
     id="path2" />
  <path
     transform="matrix(4.9432 0 0 4.9432 -7.0246e-14 .11369)"
     d="m85 187.43v-30.11"
     fill="none"
     stroke="#000"
     stroke-linecap="round"
     stroke-width="25"
     id="path4" />
  <path
     transform="matrix(4.9432 0 0 4.9432 -7.0246e-14 .11369)"
     d="m157.5 190.6c0 21.789-17.828 39.617-39.617 39.617h-65.765c-21.79 0-39.618-17.828-39.618-39.617v-36.448c0-21.79 17.828-39.618 39.618-39.618h65.765c21.789 0 39.617 17.828 39.617 39.618z"
     fill="none"
     stroke="#000"
     stroke-width="25"
     id="path6" />
  <path
     d="m877 51.512c-33.184 29.305-51.32 65.492-53.898 107.56l-0.42969 6.9805 100.77 12.148 1.4336-6.5938c5.6914-26.168 16.102-45.77 30.934-58.25 14.957-12.59 33.16-18.711 55.637-18.711 22.984 0 41.371 5.9766 54.637 17.766 13.203 11.734 19.621 25.34 19.621 41.602 0 11.68-3.5977 22.109-10.992 31.883-3.4102 4.3984-14.641 15.469-48.387 42.816-28.75 23.297-47.492 43.895-57.297 62.965-9.7266 18.918-14.656 43.164-14.656 72.062l0.44922 29.996 7.3047-0.03125h93.43l-0.12891-7.543c-0.53906-30.82 2.875-44.676 5.8438-50.875 2.9844-6.2422 11.527-17.82 35.293-37.547 39.621-32.898 64.867-58.355 77.191-77.82 12.5-19.742 18.848-41.008 18.848-63.219 0-39.754-17.062-74.984-50.723-104.73-33.391-29.496-78.711-44.453-134.71-44.453-53.32 0.007813-97.113 14.809-130.17 43.996z"
     id="path8"
     style="stroke:#000000;stroke-opacity:1" />
  <path
     d="m1007.2 0.11328c-55.176 0-100.61 15.422-135.07 45.844-34.707 30.664-53.676 68.566-56.387 112.66l-0.86328 13.961 13.891 1.6719 87.125 10.504 13.402 1.6172 2.8672-13.188c5.3281-24.527 14.902-42.75 28.457-54.152 13.57-11.418 30.203-16.965 50.859-16.965 21.418 0 37.676 5.1953 49.707 15.891 11.527 10.242 17.137 22.035 17.137 36.055 0 9.9883-3.0977 18.945-9.4609 27.375-2.7734 3.5156-12.594 13.555-47.172 41.57-29.566 23.953-48.938 45.328-59.223 65.332-10.266 19.977-15.473 45.359-15.473 75.453 0 3.0781 0.11719 11.402 0.33984 22.832l0.27344 14.551h115.53l-0.26172-15.086c-0.54297-30.926 2.9727-43.066 5.1094-47.555 2.1797-4.5586 9.4102-15.176 33.336-35.043 40.219-33.391 65.965-59.41 78.719-79.551 13.277-20.945 20.004-43.551 20.004-67.188 0-41.969-17.91-79.07-53.227-110.28h-0.003906c-34.785-30.73-81.758-46.312-139.62-46.312zm-176.66 159.42c2.4727-40.223 19.609-74.371 51.402-102.46 31.809-28.086 73.566-42.133 125.25-42.133 54.395 0 97.656 14.203 129.8 42.594 32.141 28.402 48.219 61.457 48.219 99.168 0 20.875-5.8984 40.629-17.695 59.254-11.805 18.629-37.016 43.984-75.668 76.074-20.004 16.609-32.418 29.961-37.246 40.059-4.4102 9.2344-6.625 25.125-6.625 47.668 0 2.1211 0.019531 4.3008 0.0625 6.5352h-85.887c-0.23828-12.34-0.33594-19.863-0.33594-22.555 0-27.824 4.6016-50.715 13.832-68.672 9.2344-17.957 27.684-38.156 55.375-60.594 27.688-22.438 44.227-37.145 49.633-44.102 8.3203-11 12.492-23.113 12.492-36.363 0-18.344-7.375-34.047-22.117-47.145-14.727-13.09-34.594-19.633-59.559-19.633-24.078 0-44.207 6.8164-60.406 20.445-16.203 13.633-27.336 34.418-33.406 62.352z"
     id="path10" />
  <path
     d="m954.7 461.06h100.71v109.37h-100.71z"
     id="path12"
     style="stroke:#000000;stroke-opacity:1" />
  <path
     d="m1062.8 453.65h-115.54v124.2h115.54zm-100.72 14.828h85.887v94.539h-85.887z"
     id="path14" />
</svg>
