<?xml version="1.0" encoding="UTF-8"?>
<svg width="1200pt" height="1200pt" version="1.1" viewBox="0 0 1200 1200" xmlns="http://www.w3.org/2000/svg">
 <g>
  <path d="m998.4 272.4c-6-22.801-30-37.199-54-31.199-78 21.602-296.4 78-357.6 82.801l-105.6 7.1992c-76.801 4.8008-126 1.1992-152.4-32.398-18-22.801-34.801-96-40.801-144 6 3.6016 13.199 6 21.602 7.1992 36 6 70.801-19.199 75.602-56.398 6-36-19.199-70.801-56.398-75.602-36-6-70.801 19.199-75.602 56.398-1.2031 9.6016-0.003906 19.203 2.3984 27.602-4.8008-1.1992-10.801-2.3984-16.801-1.1992-24 3.6016-40.801 25.199-38.398 49.199 2.3984 22.801 19.199 140.4 60 190.8 38.398 49.199 93.602 63.602 151.2 67.199h28.801c9.6016 46.801 31.199 158.4 28.801 242.4-14.398 60-34.801 124.8-45.602 144-24 10.801-104.4 36-171.6 52.801-27.602 7.1992-44.398 34.801-37.199 62.398 7.1992 27.602 34.801 44.398 62.398 37.199 118.8-30 190.8-55.199 212.4-73.199 8.3984-7.1992 32.398-27.602 67.199-156h1.1992c10.801 57.602 24 129.6 24 154.8-1.1992 25.199-48 128.4-90 210-13.199 25.199-3.6016 56.398 21.602 68.398 7.1992 3.6016 14.398 4.8008 21.602 6 19.199 1.1992 38.398-9.6016 48-27.602 38.398-74.398 103.2-205.2 100.8-259.2-1.1992-42-20.398-146.4-30-192h1.1992c24-142.8 3.6016-246-8.3984-286.8 109.2-20.398 295.2-70.801 319.2-76.801 25.199-5.9961 38.398-29.996 32.398-53.996z"/>
  <path d="m627.36 185c3.8828 56.863-39.062 106.11-95.93 110-56.863 3.8828-106.11-39.062-110-95.93-3.8867-56.863 39.062-106.11 95.926-110 56.863-3.8867 106.11 39.062 110 95.926"/>
 </g>
</svg>
