<?xml version="1.0" encoding="UTF-8"?>
<svg width="1200pt" height="1200pt" version="1.1" viewBox="0 0 1200 1200" xmlns="http://www.w3.org/2000/svg">
 <path d="m1009.9 595.89-21.23 469.39c-0.90625 20.184-9.707 38.27-23.285 51.25-13.594 12.996-32.016 20.949-52.172 20.949h-117.4c-20.805 0-39.727-8.4883-53.406-22.168-13.676-13.676-22.168-32.598-22.168-53.406v-274.61c0-33.094-13.52-63.199-35.277-84.941-21.855-21.785-51.945-35.348-85.012-35.348s-63.156 13.562-84.941 35.348l-0.90625 0.85156c-21.262 21.672-34.441 51.422-34.441 84.09v274.61c0 20.805-8.5039 39.727-22.18 53.406-13.676 13.676-32.586 22.168-53.391 22.168h-117.41c-20.156 0-38.566-7.9531-52.156-20.949-13.594-12.984-22.379-31.055-23.285-51.25l-21.246-469.39c-0.45312-10.504-5.0586-19.957-12.16-26.789-7.1016-6.7891-16.797-10.957-27.441-10.957h-102.45c-9.9336 0-18-8.0664-18-18 0-5.9688 2.9062-11.254 7.3711-14.527l512.21-444.04c14.641-12.684 32.543-19.051 50.414-19.051 17.887 0 35.801 6.3633 50.441 19.051l513.32 445c7.4844 6.4766 8.3047 17.816 1.8281 25.301-3.543 4.0977-8.5312 6.1953-13.562 6.1953l-102.46 0.070313c-10.629 0-20.309 4.168-27.426 10.969-7.1016 6.7891-11.723 16.242-12.176 26.773z" fill-rule="evenodd"/>
</svg>
