<?xml version="1.0" encoding="UTF-8"?>
<svg width="1200pt" height="1200pt" version="1.1" viewBox="0 0 1200 1200" xmlns="http://www.w3.org/2000/svg">
 <path d="m600 171.71-0.046875 0.046875c-133.22-0.046875-241.22 107.95-241.22 241.18v101.16h132.61v-101.16c0-60.047 48.609-108.66 108.66-108.66 60 0 108.66 48.609 108.66 108.66v101.16h132.56v-101.16c0-133.22-108-241.22-241.22-241.22zm0 529.55v0.046875c48.891-0.046875 88.547 39.609 88.547 88.547 0 48.891-39.656 88.547-88.547 88.547-48.938 0-88.594-39.656-88.594-88.547 0-48.938 39.656-88.594 88.594-88.594v0.046875zm258.56-162.79h-514.97l-1.9688 0.046874c-48.844 0-88.453 39.516-88.547 88.312v312.98c0.09375 48.844 39.703 88.359 88.547 88.359l516.71 0.046876c48.844-0.046876 88.453-39.562 88.547-88.406v-312.98c-0.09375-48.844-39.469-88.359-88.312-88.359z"/>
</svg>
