<?xml version="1.0" encoding="UTF-8"?>
<svg width="1200pt" height="1200pt" version="1.1" viewBox="0 0 1200 1200" xmlns="http://www.w3.org/2000/svg">
 <path d="m866.69 533.33h-637.6l155.33-153c26.133-25.867 26.402-68.266 0.53516-94.465-25.934-26.199-68.066-26.535-94.336-0.66797l-270.8 266.6c-26.203 25.867-26.469 68.066-0.60156 94.266l266.67 270.8c13.066 13.199 30.266 19.801 47.465 19.801 16.934 0 33.867-6.4023 46.867-19.203 26.199-25.93 26.465-67.664 0.60156-93.863l-154.54-156.93h640.4c36.867 0 66.668-29.867 66.668-66.668s-29.801-66.668-66.668-66.668m-333.33 600c0 36.801 29.867 66.668 66.668 66.668h439.93c89.73 0 160.07-73.199 160.07-166.67v-866.66c0-93.469-70.336-166.67-160.07-166.67h-439.93c-36.801 0-66.668 29.867-66.668 66.668 0 36.797 29.867 66.664 66.668 66.664h439.93c25.934 0 26.73 29.934 26.73 33.336v866.66c0 3.4023-0.79688 33.336-26.73 33.336h-439.93c-36.801 0-66.668 29.867-66.668 66.664" fill-rule="evenodd"/>
</svg>
