<?xml version="1.0" encoding="UTF-8"?>
<svg width="1200pt" height="1200pt" version="1.1" viewBox="0 0 1200 1200" xmlns="http://www.w3.org/2000/svg">
 <g>
  <path d="m600 495.72c38.191 0 74.816-15.172 101.82-42.176 27.004-27.004 42.176-63.633 42.176-101.82s-15.172-74.816-42.176-101.82c-27.008-27.008-63.633-42.18-101.82-42.18s-74.816 15.172-101.82 42.18c-27.004 27.004-42.176 63.629-42.176 101.82s15.172 74.82 42.176 101.82c27.008 27.004 63.633 42.176 101.82 42.176z"/>
  <path d="m1052 699.24h-203.4l19.32-20.039c146.28-152.4 147.84-398.88 3.4805-549.36-33.773-35.715-74.477-64.164-119.62-83.598-45.148-19.438-93.789-29.457-142.94-29.441-50.336 0.089844-100.13 10.449-146.32 30.441-46.199 19.992-87.832 49.203-122.36 85.836-146.4 152.4-148.2 398.88-3.5977 549.36l16.078 16.68h-204.72c-9.0312-0.035156-17.746 3.3281-24.414 9.418-6.668 6.0898-10.805 14.465-11.586 23.461l-36 411.96c-0.87891 10.074 2.5234 20.055 9.375 27.496 6.8477 7.4414 16.512 11.66 26.625 11.621h976.08c10.113 0.039063 19.777-4.1797 26.625-11.621 6.8516-7.4414 10.254-17.422 9.375-27.496l-36.117-411.96c-0.8125-8.9531-4.9414-17.281-11.582-23.344s-15.309-9.4219-24.301-9.418zm-660-516c27.801-29.652 61.359-53.324 98.625-69.562 37.262-16.238 77.449-24.703 118.1-24.875 39.48 0.042969 78.539 8.1562 114.78 23.84 36.234 15.684 68.883 38.605 95.941 67.359 117.96 122.64 116.52 324-3.4805 449.28l-216 224.4-211.44-221.04c-117.96-123.12-116.4-324.84 3.6016-449.76zm243.96 927.96v-100.8h-72v100.8h-412.68l12.719-146.04h216v-72h-209.76l10.68-122.04h240.72l152.88 159.48c6.7812 7.0469 16.141 11.031 25.922 11.039 9.7812-0.007813 19.137-3.9922 25.918-11.039l153.6-159.36h240l10.68 122.04-210.72 0.003906v72h216l12.719 145.92z"/>
 </g>
</svg>
