<?xml version="1.0" encoding="UTF-8"?>
<svg width="1200pt" height="1200pt" version="1.1" viewBox="0 0 1200 1200" xmlns="http://www.w3.org/2000/svg">
 <g fill-rule="evenodd">
  <path d="m887.46 165.19c-20.062 0.14062-40.43 7.5273-55.875 22.125-12.215 11.543-20.57 27.629-23.625 46.5-200.88 100.05-401.11 178.18-606.75 149.25-2.2383-0.32031-4.5117-0.32031-6.75 0-79.496 12.656-122.62 80.406-122.62 145.88 0 65.465 43.125 133.22 122.62 145.88 2.2383 0.31641 4.5117 0.31641 6.75 0 3.1602-0.44531 6.5898-0.73047 9.75-1.1289v272.62c0 48.469 39.68 88.5 88.125 88.5 48.512 0 88.125-40.031 88.125-88.5v-270.38c141.24 19.617 280.85 78.441 420.75 148.12 3.0547 18.871 11.41 35.332 23.625 46.875 15.445 14.598 35.816 21.602 55.875 21.75 40.121 0.30078 82.094-29.902 88.875-81 0.1875-0.99219 0.3125-1.9922 0.375-3v-559.5c-0.0625-1.0078-0.1875-2.0078-0.375-3-6.7812-51.137-48.746-81.281-88.875-81zm0.37109 48c17.898-0.125 36.543 9.3516 40.875 37.875v555.75c-4.3281 28.461-22.969 38.008-40.875 37.875-9.0977-0.12109-17.496-3.1836-23.25-8.625s-10.125-13.219-10.125-27.375c-0.003906-4.4297-1.2305-8.7656-3.5469-12.539-2.3164-3.7734-5.6289-6.832-9.5781-8.8359-147.4-74.023-298.06-139.86-454.12-160.12v-196.5c156.06-20.266 306.73-85.727 454.12-159.75 4.0039-2.0352 7.3555-5.1523 9.6758-8.9961 2.3203-3.8477 3.5156-8.2656 3.4492-12.754 0-14.156 4.3711-21.562 10.125-27 5.7539-5.4375 14.156-8.9375 23.25-9z"/>
  <path d="m676.14 382.29c-3.7734-0.085937-7.5156 0.71875-10.922 2.3477-70.301 32.457-140.39 47.527-224.36 66.293-6.2812 1.3203-11.77 5.1016-15.242 10.5-3.4727 5.3945-4.6406 11.957-3.2422 18.219 1.3984 6.2656 5.25 11.707 10.688 15.109 5.4414 3.4062 12.016 4.4922 18.262 3.0117 83.707-18.707 157.84-34.398 234-69.559 6.6914-2.9766 11.66-8.8438 13.488-15.934 1.8281-7.0898 0.32031-14.629-4.0977-20.473-4.418-5.8398-11.262-9.3438-18.582-9.5156z"/>
  <path d="m796.72 327.39c-3.7773 0.035156-7.4922 0.96094-10.84 2.7031-17.512 8.793-33.258 17.332-47.871 23.223h-0.003906c-6.0078 2.3047-10.844 6.9258-13.414 12.828-2.5703 5.8984-2.6602 12.586-0.25391 18.555 2.4062 5.9727 7.1094 10.727 13.055 13.195 5.9414 2.4688 12.629 2.4453 18.559-0.066406 18.227-7.3477 34.914-16.531 51.469-24.844 6.5898-3.1914 11.363-9.2227 12.957-16.371 1.5938-7.1445-0.16016-14.633-4.7695-20.324s-11.562-8.9688-18.887-8.8984z"/>
  <path d="m1019.9 504.96c-6.418-0.082032-12.602 2.4102-17.168 6.918-4.5703 4.5078-7.1406 10.66-7.1406 17.078s2.5703 12.57 7.1406 17.082c4.5664 4.5078 10.75 7 17.168 6.918h83.945c6.418 0.082031 12.602-2.4102 17.168-6.918 4.5664-4.5117 7.1406-10.664 7.1406-17.082s-2.5742-12.57-7.1406-17.078c-4.5664-4.5078-10.75-7-17.168-6.918z"/>
  <path d="m1100.6 356.33c-3.7773 0.11328-7.4727 1.1133-10.785 2.9219l-81.086 42.773c-5.6797 2.9414-9.9492 8.0273-11.859 14.133-1.9102 6.1016-1.3086 12.715 1.6758 18.371s8.1016 9.8867 14.219 11.758c6.1172 1.8672 12.723 1.2148 18.359-1.8086l81.086-42.773c6.5273-3.3242 11.18-9.4492 12.629-16.629 1.4531-7.1797-0.45312-14.629-5.1758-20.227-4.7227-5.6016-11.742-8.7383-19.062-8.5195z"/>
  <path d="m1019.6 610.5c-7.2422 0-14.094 3.2734-18.652 8.8984-4.5547 5.6289-6.3242 13.012-4.8203 20.098 1.5078 7.082 6.1328 13.105 12.586 16.391l81.086 42.77v-0.003906c5.6367 3.082 12.277 3.7734 18.434 1.9219 6.1523-1.8555 11.305-6.0977 14.305-11.781 2.9961-5.6836 3.5898-12.332 1.6484-18.461-1.9453-6.125-6.2656-11.215-11.992-14.129l-81.086-42.773v0.003906c-3.5312-1.9258-7.4883-2.9375-11.508-2.9336z"/>
 </g>
</svg>
