<?xml version="1.0" encoding="UTF-8" standalone="no"?>
<svg
   class="ionicon s-ion-icon"
   viewBox="0 0 626.74042 352"
   version="1.1"
   id="svg878"
   sodipodi:docname="team.svg"
   width="626.74042"
   height="352"
   inkscape:version="1.1.2 (0a00cf5339, 2022-02-04)"
   xmlns:inkscape="http://www.inkscape.org/namespaces/inkscape"
   xmlns:sodipodi="http://sodipodi.sourceforge.net/DTD/sodipodi-0.dtd"
   xmlns="http://www.w3.org/2000/svg"
   xmlns:svg="http://www.w3.org/2000/svg">
  <defs
     id="defs882" />
  <sodipodi:namedview
     id="namedview880"
     pagecolor="#ffffff"
     bordercolor="#666666"
     borderopacity="1.0"
     inkscape:pageshadow="2"
     inkscape:pageopacity="0.0"
     inkscape:pagecheckerboard="0"
     showgrid="false"
     inkscape:zoom="1.6482103"
     inkscape:cx="313.37021"
     inkscape:cy="180.19545"
     inkscape:window-width="1868"
     inkscape:window-height="904"
     inkscape:window-x="0"
     inkscape:window-y="0"
     inkscape:window-maximized="1"
     inkscape:current-layer="svg878" />
  <circle
     cx="282.74045"
     cy="104"
     r="72"
     id="circle870" />
  <ellipse
     cx="97.889717"
     cy="130.99162"
     id="circle870-3"
     rx="56.499859"
     ry="54.937332"
     style="stroke-width:0.773793" />
  <path
     d="m 364.74044,216 c -28.16,-14.3 -59.24,-20 -82,-20 -44.58,0 -136,27.34 -136,82 v 42 h 150 v -16.07 c 0,-19 8,-38.05 22,-53.93 11.17,-12.68 26.81,-24.45 46,-34 z"
     id="path872" />
  <path
     d="M 179.17245,214.11115 C 156.02797,203.56877 130.48357,199.36657 111.77731,199.36657 75.137362,199.36657 0,219.52241 0,259.81934 v 30.96361 h 123.28379 v -11.84727 c 0,-14.00735 6.57514,-28.05156 18.08163,-39.75875 9.18053,-9.34806 22.03492,-18.02525 37.80703,-25.06578 z"
     id="path872-9"
     style="stroke-width:0.77841" />
  <path
     d="m 470.74044,208 c -52.07,0 -156,32.16 -156,96 v 48 h 312 v -48 c 0,-63.84 -103.93,-96 -156,-96 z"
     id="path874" />
  <circle
     cx="470.74045"
     cy="88"
     r="88"
     id="circle876" />
</svg>
