<?xml version="1.0" encoding="UTF-8"?>
<svg width="1200pt" height="1200pt" version="1.1" viewBox="0 0 1200 1200" xmlns="http://www.w3.org/2000/svg">
 <path d="m477.75 264c-129.77 12.977-229.68 102.18-302.62 175.12-3.7891 3.7617-6.2188 8.6836-6.8984 13.98-0.67578 5.2969 0.42969 10.672 3.1484 15.27l72 120c2.7969 4.6875 7.1055 8.2812 12.219 10.191 5.1133 1.9062 10.723 2.0156 15.906 0.30859l76.5-25.5v291c0 39.273 32.352 71.625 71.625 71.625h360.75c39.273 0 71.625-32.352 71.625-71.625v-291l76.5 25.5c5.1836 1.707 10.793 1.5977 15.906-0.30859 5.1133-1.9102 9.4219-5.5039 12.219-10.191l72-120c2.7188-4.5977 3.8242-9.9727 3.1484-15.27-0.67969-5.2969-3.1094-10.219-6.8984-13.98-72.941-72.941-172.85-162.15-302.62-175.12-6.7461-0.63281-13.445 1.6094-18.445 6.1836-5 4.5703-7.832 11.043-7.8047 17.816 0 14.793-8.5039 29.77-25.875 42.375s-42.863 21.375-70.125 21.375-52.754-8.7695-70.125-21.375-25.875-27.582-25.875-42.375c0.027344-6.7734-2.8047-13.246-7.8047-17.816-5-4.5742-11.699-6.8164-18.445-6.1836zm-16.875 51.75c7.2383 21.383 22.105 40.008 40.875 53.625 26.531 19.25 61.133 30.375 98.25 30.375s71.719-11.125 98.25-30.375c18.77-13.617 33.637-32.242 40.875-53.625 94.34 17.203 174.16 81.613 238.5 144.38l-52.125 87-90-30c-7.3242-2.4102-15.363-1.1523-21.602 3.3789-6.2383 4.5312-9.9219 11.785-9.8984 19.496v324.38c0 13.328-10.297 23.625-23.625 23.625h-360.75c-13.328 0-23.625-10.297-23.625-23.625v-324.38c0.023438-7.7109-3.6602-14.965-9.8984-19.496-6.2383-4.5312-14.277-5.7891-21.602-3.3789l-90 30-52.125-87c64.34-62.762 144.16-127.17 238.5-144.38z"/>
</svg>
