<?xml version="1.0" encoding="UTF-8"?>
<svg width="1200pt" height="1200pt" version="1.1" viewBox="0 0 1200 1200" xmlns="http://www.w3.org/2000/svg">
 <path d="m600 171.71v0.046875h-0.046875l-0.09375 0.046875c0-0.046875 0-0.046875-0.046875-0.046875-96.281 0-179.34 56.484-217.97 138.1-14.812 31.219-23.109 66.188-23.109 103.08v18.75c0.046875 12.891 10.547 23.344 23.438 23.344h85.781c12.891 0 23.344-10.453 23.344-23.344l0.046875-18.75c0-19.5 5.1094-37.828 14.109-53.625h0.046875c18.656-32.906 54-55.031 94.5-55.031 60 0 108.66 48.609 108.66 108.66v101.16h132.56v-101.16c0-133.22-108-241.22-241.22-241.22zm0 529.55v0.09375c48.891-0.046875 88.547 39.562 88.547 88.5 0 48.891-39.656 88.547-88.547 88.547-48.938 0-88.594-39.656-88.594-88.547 0-48.938 39.656-88.594 88.594-88.594v0.046875zm-258.42-162.74c-48.844 0-88.406 39.516-88.5 88.312v312.98c0.09375 48.844 39.703 88.359 88.547 88.359l516.71 0.046875c48.844-0.046875 88.453-39.562 88.547-88.406v-312.98c-0.09375-48.844-39.469-88.359-88.312-88.359z"/>
</svg>
