<?xml version="1.0" encoding="UTF-8" standalone="no"?>
<!-- Created with Inkscape (http://www.inkscape.org/) -->

<svg
   width="158.55685mm"
   height="168.89859mm"
   viewBox="0 0 158.55686 168.89859"
   version="1.1"
   id="svg5"
   xmlns="http://www.w3.org/2000/svg"
   xmlns:svg="http://www.w3.org/2000/svg">
  <defs
     id="defs2" />
  <g
     id="layer1"
     transform="translate(-30.349298,-16.337035)">
    <path
       d="m 86.215128,76.488625 a 29.633333,29.633333 0 1 0 -29.63333,-29.63334 29.633333,29.633333 0 0 0 29.63333,29.63334 z m 0,8.46666 c -18.36737,0 -55.03333,11.34534 -55.03333,33.866665 v 16.93333 H 141.24847 v -16.93333 c 0,-22.521325 -36.66596,-33.866665 -55.033342,-33.866665 z"
       id="path1091"
       style="stroke:#6b6b6b;stroke-width:1.665;stroke-miterlimit:4;stroke-dasharray:none;stroke-opacity:1" />
    <path
       d="m 147.14636,93.694187 c 1.95995,0.7841 3.91981,1.56783 5.87975,2.35196 l 9.4077,-7.05555 c 1.95995,-1.17581 4.31192,-0.7841 5.48772,0.39205 l 8.62339,8.62339 c 1.56783,1.56783 1.56783,3.919803 0.39205,5.487723 l -6.66353,9.79929 c 0.7841,1.95994 1.56783,3.9198 2.35197,5.87974 l 11.75896,1.95995 c 1.95995,0 3.52778,1.95994 3.52778,3.9198 v 12.15143 c 0,1.95995 -1.56783,3.9198 -3.52778,4.31192 l -11.75896,1.95994 c -0.7841,1.95995 -1.56783,3.9198 -2.35197,5.87975 l 7.05556,9.4077 c 1.1758,1.95995 0.7841,4.31192 -0.39206,5.48772 l -8.62338,8.62339 c -1.56783,1.56783 -3.9198,1.56783 -5.48772,0.39205 l -9.79929,-6.66353 c -1.95994,0.7841 -3.9198,1.56783 -5.87975,2.35197 l -1.95994,11.75897 c -0.39205,1.95994 -2.35197,3.52777 -4.31191,3.52777 h -12.15143 c -1.95995,0 -3.91981,-1.56783 -3.91981,-3.52777 l -1.95994,-11.75897 c -1.95995,-0.7841 -3.9198,-1.56783 -5.87975,-2.35197 l -9.79928,6.66353 c -1.56784,1.17581 -3.91981,1.17581 -5.48773,-0.39205 L 93.053633,164.251 c -1.17581,-1.1758 -1.56784,-3.52777 -0.39206,-5.09561 l 7.055562,-9.79928 c -1.17581,-1.95995 -1.95995,-3.9198 -2.35197,-5.87975 l -11.758962,-1.95994 c -1.95995,-0.39205 -3.52778,-2.35197 -3.52778,-4.31192 v -12.15143 c 0,-1.95994 1.56783,-3.9198 3.52778,-3.9198 l 11.758962,-1.95995 c 0.39205,-2.35197 1.17581,-3.9198 2.35197,-5.87974 l -7.055562,-9.79929 c -1.1758,-1.56783 -0.7841,-3.919803 0.78411,-5.487723 l 8.623377,-8.62339 c 1.17581,-1.17581 3.52778,-1.56783 5.09562,-0.39205 l 9.79928,7.05555 c 1.95995,-0.7841 3.9198,-1.56783 5.87975,-2.35197 l 1.95994,-11.75896 c 0,-1.95995 1.95995,-3.52778 3.9198,-3.52778 h 12.15144 c 1.95994,0 3.9198,1.56783 4.31191,3.52778 l 1.95994,11.75896 z m -12.15142,15.286743 c -12.15144,0 -22.3423,10.19087 -22.3423,22.3423 0,12.15143 10.19086,22.3423 22.3423,22.3423 12.15142,0 22.34229,-10.19087 22.34229,-22.3423 0,-12.15143 -10.19087,-22.3423 -22.34229,-22.3423 z"
       fill-rule="evenodd"
       id="path1042"
       style="fill:#8e8e8e;fill-opacity:1;stroke:#cacaca;stroke-width:1.988;stroke-miterlimit:4;stroke-dasharray:none;stroke-opacity:1" />
  </g>
</svg>
