<?xml version="1.0" encoding="UTF-8"?>
<svg width="1200pt" height="1200pt" version="1.1" viewBox="0 0 1200 1200" xmlns="http://www.w3.org/2000/svg">
 <g>
  <path d="m849.48 458.16 65.496-113.51-178.71-103.19c-116.4-67.188-265.5-27.348-332.75 89.16l39 22.523c30.996-53.809 99.805-72.238 153.65-41.184l58.402 33.695-140.7 243.72-19.469-11.207-180.01 311.72c-18.625 32.293-7.6094 73.598 24.684 92.207 32.363 18.695 73.633 7.5977 92.258-24.73l179.94-311.71-19.402-11.242 140.69-243.72z"/>
  <path d="m247.6 761.22c-5.6758 0-11.398-1.4414-16.609-4.4297l-214.32-123.74c-10.344-5.9609-16.668-16.969-16.668-28.883 0-11.914 6.3242-22.922 16.668-28.871l214.32-123.73c15.887-9.2031 36.277-3.7422 45.504 12.203 9.2539 15.949 3.7812 36.324-12.18 45.527l-164.32 94.871 164.32 94.871c15.961 9.1797 21.422 29.555 12.18 45.504-6.1797 10.719-17.387 16.68-28.895 16.68z"/>
  <path d="m952.33 794.54c-11.508 0-22.715-5.9648-28.895-16.668-9.1797-15.949-3.7188-36.336 12.238-45.504l164.33-94.871-164.33-94.859c-15.949-9.2148-21.406-29.594-12.238-45.527 9.2539-15.949 29.617-21.406 45.562-12.203l214.33 123.73c10.285 5.9648 16.668 16.969 16.668 28.871 0 11.902-6.3711 22.922-16.668 28.859l-214.33 123.75c-5.2578 3-10.992 4.4258-16.668 4.4258z"/>
 </g>
</svg>
