<?xml version="1.0" encoding="UTF-8"?>
<svg width="1200pt" height="1200pt" version="1.1" viewBox="0 0 1200 1200" xmlns="http://www.w3.org/2000/svg">
 <path d="m737.78 173.33c22.223 8.8906 44.445 17.777 66.668 26.668l106.67-80c22.223-13.332 48.891-8.8906 62.223 4.4453l97.777 97.777c17.777 17.777 17.777 44.445 4.4453 62.223l-75.555 111.11c8.8906 22.223 17.777 44.445 26.668 66.668l133.33 22.223c22.223 0 40 22.223 40 44.445v137.78c0 22.223-17.777 44.445-40 48.891l-133.33 22.223c-8.8906 22.223-17.777 44.445-26.668 66.668l80 106.67c13.332 22.223 8.8906 48.891-4.4453 62.223l-97.777 97.777c-17.777 17.777-44.445 17.777-62.223 4.4453l-111.11-75.555c-22.223 8.8906-44.445 17.777-66.668 26.668l-22.223 133.33c-4.4453 22.223-26.668 40-48.891 40h-137.78c-22.223 0-44.445-17.777-44.445-40l-22.223-133.33c-22.223-8.8906-44.445-17.777-66.668-26.668l-111.11 75.555c-17.777 13.332-44.445 13.332-62.223-4.4453l-97.777-97.777c-13.332-13.332-17.777-40-4.4453-57.777l80-111.11c-13.332-22.223-22.223-44.445-26.668-66.668l-133.33-22.223c-22.223-4.4453-40-26.668-40-48.891v-137.78c0-22.223 17.777-44.445 40-44.445l133.33-22.223c4.4453-26.668 13.332-44.445 26.668-66.668l-80-111.11c-13.332-17.777-8.8906-44.445 8.8906-62.223l97.777-97.777c13.332-13.332 40-17.777 57.777-4.4453l111.11 80c22.223-8.8906 44.445-17.777 66.668-26.668l22.223-133.33c0-22.223 22.223-40 44.445-40h137.78c22.223 0 44.445 17.777 48.891 40l22.223 133.33zm-137.78 173.33c-137.78 0-253.33 115.55-253.33 253.33s115.55 253.33 253.33 253.33 253.33-115.55 253.33-253.33-115.55-253.33-253.33-253.33z" fill-rule="evenodd"/>
</svg>
