<?xml version="1.0" encoding="UTF-8"?>
<svg width="1200pt" height="1200pt" version="1.1" viewBox="0 0 1200 1200" xmlns="http://www.w3.org/2000/svg">
 <path d="m321.68 0.023438c-9.2578 0.92969-17.844 5.2656-24.082 12.168-6.2422 6.9062-9.6914 15.883-9.6836 25.188v29.371h-194.31c-9.957 0.019531-19.496 4-26.52 11.062-7.0195 7.0586-10.941 16.625-10.906 26.582v1058c-0.035157 9.957 3.8867 19.523 10.906 26.582 7.0234 7.0625 16.562 11.043 26.52 11.062h721.66c9.9453-0.039063 19.469-4.0273 26.473-11.086s10.918-16.613 10.883-26.559v-298.02l159.08-158.94v0.003906c0.046875-0.046875 0.097656-0.09375 0.14453-0.14453l120.92-120.85c7.0781-7.0391 11.055-16.609 11.055-26.586 0-9.9805-3.9766-19.551-11.055-26.59l-109.64-109.65c-7.2109-7.0977-16.984-10.98-27.102-10.766-9.7344 0.078125-19.059 3.9375-26 10.766l-117.04 117.11v0.003906c-0.12109 0.097656-0.24219 0.19531-0.36328 0.29688v-434.62c0.039062-9.9453-3.875-19.5-10.879-26.559-7.0078-7.0625-16.531-11.051-26.477-11.09h-194.31v-29.371c-0.039063-9.9453-4.0273-19.469-11.086-26.473-7.0586-7.0039-16.613-10.918-26.559-10.883h-257.74c-1.293-0.066406-2.5898-0.066406-3.8828 0zm41.234 75h182.96v58.449h-182.96zm-231.66 66.727h156.66v29.371-0.003906c0.039062 9.9453 4.0273 19.469 11.09 26.473 7.0586 7.0078 16.613 10.922 26.559 10.883h257.74c9.9453 0.039063 19.5-3.875 26.559-10.883 7.0586-7.0039 11.047-16.527 11.086-26.473v-29.371h156.66v472.41l-282.64 282.79c-7.2031 7.1641-11.195 16.941-11.059 27.098l1.9023 107.66 0.003906 0.003906c0.09375 9.7695 3.9961 19.113 10.875 26.051 6.8828 6.9336 16.195 10.91 25.965 11.082l107.66 1.6836v0.003906c10.172 0.11328 19.949-3.9023 27.102-11.133l120.19-120.12v185.74h-646.36zm137.84 235.62v-0.003906c-13.18 0.92969-24.906 8.7188-30.871 20.512-5.9648 11.793-5.293 25.852 1.7695 37.023 7.0664 11.168 19.48 17.801 32.691 17.465h363.43c10.09 0.22656 19.844-3.625 27.059-10.684 7.2148-7.0547 11.281-16.723 11.281-26.816 0-10.09-4.0664-19.758-11.281-26.812-7.2148-7.0586-16.969-10.91-27.059-10.688h-363.43c-1.1953-0.054688-2.3945-0.054688-3.5898 0zm727.44 124 56.473 56.469-68.629 68.629-56.469-56.469zm-723.85 109.06c-10.09-0.22266-19.844 3.6289-27.059 10.684-7.2148 7.0586-11.281 16.723-11.281 26.816s4.0664 19.758 11.281 26.816c7.2148 7.0547 16.969 10.906 27.059 10.684h227.56c10.09 0.22266 19.844-3.6289 27.059-10.684 7.2148-7.0586 11.285-16.723 11.285-26.816s-4.0703-19.758-11.285-26.816c-7.2148-7.0547-16.969-10.906-27.059-10.684zm602.05 12.746 56.469 56.469-142.16 142.24 0.003907-0.003906c-0.125 0.10156-0.24609 0.19922-0.36719 0.29688l-173 173.07-55.664-0.87891-0.80469-55.664 282.35-282.35z"/>
</svg>
