<?xml version="1.0" encoding="UTF-8"?>
<svg width="1200pt" height="1200pt" version="1.1" viewBox="0 0 1200 1200" xmlns="http://www.w3.org/2000/svg">
 <g>
  <path d="m85 1035c-7.5 47.5 32.5 87.5 80 80 107.5-15 202.5-65 275-137.5l-217.5-217.5c-72.5 72.5-122.5 167.5-137.5 275z"/>
  <path d="m1200 72.5c2.5-40-32.5-75-72.5-72.5-280 12.5-530 122.5-715 302.5-135-37.5-337.5-27.5-412.5 162.5 62.5 17.5 137.5 50 212.5 100l-7.5 15c-15 27.5-7.5 60 12.5 80l322.5 322.5c22.5 22.5 55 27.5 80 12.5l15-7.5c50 75 82.5 150 100 212.5 192.5-82.5 200-277.5 162.5-412.5 180-185 290-435 302.5-715zm-425 147.5c57.5-57.5 147.5-57.5 205 0s57.5 147.5 0 205-147.5 57.5-205 0-55-150 0-205z"/>
 </g>
</svg>
